HIERARCHY
ROOT hip
{
	OFFSET 0.000000 0.000000 0.000000 
	CHANNELS 6 Xposition Yposition Zposition Xrotation Zrotation Yrotation
	JOINT abdomen
	{
		OFFSET 0.000000 3.402643 0.000000 
		CHANNELS 3 Xrotation Zrotation Yrotation
		JOINT chest
		{
			OFFSET 0.000000 8.438565 -0.680529 
			CHANNELS 3 Xrotation Zrotation Yrotation
			JOINT neck
			{
				OFFSET 0.000000 10.207942 -0.272212 
				CHANNELS 3 Xrotation Zrotation Yrotation
				JOINT head
				{
					OFFSET 0.000000 3.130431 0.000000 
					CHANNELS 3 Xrotation Zrotation Yrotation
					End Site
					{
						OFFSET 0.000000 3.130435 0.000000 
					}
				}
			}
			JOINT lCollar
			{
				OFFSET 3.470700 6.669187 -0.816635 
				CHANNELS 3 Yrotation Zrotation Xrotation
				JOINT lShldr
				{
					OFFSET 3.198488 0.000000 0.000000 
					CHANNELS 3 Zrotation Yrotation Xrotation
					JOINT lForeArm
					{
						OFFSET 10.139888 0.000000 0.000000 
						CHANNELS 3 Yrotation Zrotation Xrotation
						JOINT lHand
						{
							OFFSET 8.370511 0.000000 0.000000 
							CHANNELS 3 Zrotation Yrotation Xrotation
							End Site
							{
								OFFSET 4.083176 0.000000 0.000000 
							}
						}
					}
				}
			}
			JOINT rCollar
			{
				OFFSET -3.470700 6.669187 -0.816635 
				CHANNELS 3 Yrotation Zrotation Xrotation
				JOINT rShldr
				{
					OFFSET -3.198488 0.000000 0.000000 
					CHANNELS 3 Zrotation Yrotation Xrotation
					JOINT rForeArm
					{
						OFFSET -10.139888 0.000000 0.000000 
						CHANNELS 3 Yrotation Zrotation Xrotation
						JOINT rHand
						{
							OFFSET -8.370511 0.000000 0.000000 
							CHANNELS 3 Zrotation Yrotation Xrotation
							End Site
							{
								OFFSET -4.083176 0.000000 0.000000 
							}
						}
					}
				}
			}
		}
	}
	JOINT lThigh
	{
		OFFSET 5.308129 -1.633274 1.361059 
		CHANNELS 3 Xrotation Zrotation Yrotation
		JOINT lShin
		{
			OFFSET -2.041588 -20.007561 0.000000 
			CHANNELS 3 Xrotation Zrotation Yrotation
			JOINT lFoot
			{
				OFFSET 0.000000 -19.190928 -1.224953 
				CHANNELS 3 Xrotation Yrotation Zrotation
				End Site
				{
					OFFSET 0.000000 -2.449906 4.627600 
				}
			}
		}
	}
	JOINT rThigh
	{
		OFFSET -5.308129 -1.633274 1.361059 
		CHANNELS 3 Xrotation Zrotation Yrotation
		JOINT rShin
		{
			OFFSET 2.041588 -20.007561 0.000000 
			CHANNELS 3 Xrotation Zrotation Yrotation
			JOINT rFoot
			{
				OFFSET 0.000000 -19.190928 -1.224953 
				CHANNELS 3 Xrotation Yrotation Zrotation
				End Site
				{
					OFFSET 0.000000 -2.449906 4.627600 
				}
			}
		}
	}
}
MOTION
Frames: 13
Frame Time: 0.033333
-1.192075 52.923969 -1.093001 0.000000 1.572266 -166.123047 20.002436 -13.020166 -3.232434 -10.527343 16.318359 9.143370 51.063168 8.107644 2.471410 -33.105469 18.613281 -46.542973 2.000000 -2.000000 0.000000 -87.812500 4.238281 11.602286 -46.891327 -1.963909 -1.857166 23.111712 59.562489 23.161993 -2.000000 2.000000 0.000000 80.654297 -9.902344 -9.824218 83.402809 0.389111 -2.868752 -50.782623 -41.774464 59.613899 -1.565109 21.166639 31.373735 12.776707 -4.692638 -1.257628 9.362569 5.291434 -16.293819 10.740978 3.026515 -26.229704 -0.006183 5.332921 0.001196 1.149535 -10.694879 1.969097 
-1.253127 52.947609 -1.078673 0.166016 1.572266 -166.123047 19.987696 -12.852755 -3.175493 -10.732423 16.181641 9.208984 51.063168 8.107644 2.471410 -33.037113 18.945311 -46.445313 2.000000 -2.000000 0.000000 -87.939453 4.667969 11.377749 -47.068211 -2.073995 -1.899620 23.444014 59.697849 23.705614 -2.000000 2.000000 0.000000 81.132813 -10.136718 -10.361329 84.106491 0.360992 -2.889935 -50.034966 -40.751385 58.077774 -1.352020 21.173695 31.935551 12.949499 -4.704646 -1.263028 9.212271 5.330862 -16.080618 10.883616 2.819006 -25.709885 -0.182198 5.346711 -0.150528 1.305690 -10.303893 2.033276 
-1.320128 52.955490 -1.028631 0.341797 1.562500 -166.288864 20.181921 -12.592944 -3.282070 -10.957031 15.693360 9.169922 51.063168 8.107644 2.471410 -32.968754 19.267578 -46.103516 2.000000 -2.000000 0.000000 -87.851563 5.000000 11.202024 -47.243988 -2.073995 -1.899621 23.298838 59.733337 23.425156 -2.000000 2.000000 0.000000 81.640625 -10.468750 -10.693359 84.985413 0.331744 -2.891627 -49.523979 -39.553802 56.481850 -1.352021 21.173697 31.935551 12.949499 -4.704646 -1.263027 9.409671 5.498607 -16.204863 10.906498 2.850149 -26.068533 -0.006185 5.343040 0.020527 1.309244 -10.016044 1.942941 
-1.346616 52.947609 -0.997117 0.341797 1.562500 -166.288864 20.158907 -12.438030 -3.221664 -11.162110 15.537109 9.052735 51.063168 8.107644 2.471410 -33.486328 19.550781 -45.934235 2.000000 -2.000000 0.000000 -87.861328 5.009765 11.006712 -47.068211 -2.073995 -1.899620 23.520857 59.905102 24.038843 -2.000000 2.000000 0.000000 81.689453 -10.625000 -10.712889 84.985413 0.331744 -2.891627 -49.785088 -39.360374 55.917858 -1.351621 21.174528 31.925766 12.949499 -4.704641 -1.263027 9.727427 5.357298 -16.507114 10.906500 2.850147 -26.068533 -0.006185 5.343038 0.020527 1.515929 -10.164587 1.915260 
-1.324641 52.947609 -0.985286 0.341797 1.562500 -166.464630 20.134626 -12.517886 -3.063938 -11.142578 15.712892 9.111327 51.063168 8.107644 2.471410 -34.199223 19.843748 -45.937504 2.000000 -2.000000 0.000000 -87.880859 4.970703 10.625000 -46.892139 -2.083175 -1.889305 24.154617 59.940804 24.684206 -2.000000 2.000000 0.000000 81.748047 -10.898437 -10.646378 85.161469 0.312810 -2.902500 -50.058239 -39.011021 55.229527 -1.352021 21.173697 31.935551 12.949500 -4.704641 -1.263027 10.136918 5.551343 -16.785929 10.913511 2.858189 -26.234276 -0.006179 5.333098 0.010949 1.298453 -9.873916 1.617952 
-1.299878 52.955490 -0.961995 0.527344 1.552732 -166.620819 20.310759 -12.770874 -2.975611 -10.947266 15.859375 9.208984 51.063168 8.107644 2.471410 -35.107426 19.990232 -45.927734 2.000000 -2.000000 0.000000 -87.890625 4.970704 10.605469 -46.715286 -1.963340 -1.847421 24.514479 60.223965 24.809301 -2.000000 2.000000 0.000000 81.630859 -11.093750 -10.939380 85.333771 0.364781 -3.124453 -50.445675 -38.530060 54.719875 -1.134665 21.423439 31.982771 12.787026 -4.692877 -1.258426 10.528337 5.679527 -16.586769 10.913511 2.858188 -26.234276 -0.006177 5.333098 0.010949 1.475654 -9.917454 1.825876 
-1.254285 52.955490 -0.955306 0.527344 1.552732 -166.806366 20.310759 -12.770874 -2.975611 -10.937500 16.025391 9.267579 51.063168 8.107644 2.471410 -36.210938 20.166014 -46.064453 2.000000 -2.000000 0.000000 -88.242188 4.980468 10.694208 -46.716095 -2.082605 -1.879559 24.154617 59.940804 24.684206 -2.000000 2.000000 0.000000 81.523438 -11.357421 -11.044922 85.509560 0.364781 -3.124453 -50.889698 -38.179012 54.065300 -1.156485 21.427595 31.812794 12.776702 -4.692653 -1.257630 10.208379 5.824151 -16.862860 11.043140 2.723243 -26.069559 -0.006180 5.343038 0.020527 1.496276 -9.777424 1.524781 
-1.216619 52.955490 -0.929717 0.527344 1.552732 -166.806366 20.287060 -12.859853 -2.823476 -10.732423 16.181641 9.384766 51.063168 8.107644 2.471410 -37.119141 20.478516 -46.044922 2.000000 -2.000000 0.000000 -88.232422 5.000000 11.054688 -46.892139 -2.083175 -1.889305 23.730650 59.665958 24.491158 -2.000000 2.000000 0.000000 81.591797 -11.679688 -10.978541 85.679329 0.293876 -2.913374 -50.979977 -38.114758 53.330345 -1.156485 21.427595 31.812794 12.776702 -4.692653 -1.257630 10.208381 5.824149 -16.862860 11.098898 2.887844 -26.026476 -0.180980 5.388477 -0.014756 1.496988 -9.660347 1.411520 
-1.160866 52.947609 -0.905887 0.703125 1.572266 -166.972382 20.452827 -13.103711 -2.731838 -10.703125 16.338373 9.269970 51.063168 8.107644 2.471410 -38.212894 20.654295 -46.103516 2.000000 -2.000000 0.000000 -88.359375 4.755859 10.820313 -47.068211 -2.073995 -1.899620 23.258728 59.781223 23.855858 -2.000000 2.000000 0.000000 81.552734 -11.513671 -11.181641 85.513313 0.303626 -2.912810 -51.320019 -37.886150 53.453773 -1.029222 21.330662 31.646425 12.782514 -4.645699 -1.272717 10.054841 6.039229 -17.006903 11.098899 2.887843 -26.026476 -0.180981 5.388477 -0.014756 1.490054 -9.639466 1.407745 
-1.120250 52.947609 -0.885162 0.703125 1.572266 -167.148178 20.428930 -13.192696 -2.577533 -10.683595 16.503908 9.326172 51.063168 8.107644 2.471410 -39.140633 20.781250 -46.191410 2.000000 -2.000000 0.000000 -88.300781 4.609375 11.211724 -47.068211 -2.073995 -1.899620 22.589432 59.559517 23.169071 -2.000000 2.000000 0.000000 81.875000 -11.328125 -11.339808 85.337257 0.303061 -2.903064 -51.594009 -37.400124 53.816235 -1.029222 21.330658 31.646429 12.782515 -4.645698 -1.272717 9.983464 5.813405 -17.079790 11.063944 2.948512 -26.029104 -0.006572 5.300977 -0.144581 1.455732 -9.361298 1.185333 
-1.091007 52.947609 -0.854937 0.703125 1.572266 -167.323959 20.433443 -13.350976 -2.631129 -10.478516 16.650393 9.462892 51.063168 8.107644 2.471410 -39.902344 20.888668 -46.152351 2.000000 -2.000000 0.000000 -88.232422 4.414062 11.630858 -47.067402 -1.954729 -1.867482 22.690405 59.708611 23.101406 -2.000000 2.000000 0.000000 81.640625 -11.123049 -11.513671 85.161469 0.312810 -2.902500 -51.914547 -37.180492 53.940144 -1.008470 21.519262 31.652760 12.782514 -4.645701 -1.272717 9.892374 6.049027 -16.943363 11.070249 2.966355 -26.193115 -0.006034 5.301507 -0.115323 1.305055 -9.293045 1.229116 
-1.070449 52.947609 -0.814327 0.869141 1.572266 -167.324219 20.585114 -13.436537 -2.485967 -10.478516 16.650393 9.462892 51.063168 8.107644 2.471410 -40.419922 21.132811 -46.093754 2.000000 -2.000000 0.000000 -88.037109 4.462891 12.119903 -47.067402 -1.954729 -1.867482 22.681574 59.708393 23.101658 -2.000000 2.000000 0.000000 81.406250 -11.035156 -11.242102 85.161469 0.312810 -2.902500 -52.134621 -37.161587 53.976662 -1.008468 21.519262 31.652760 12.782513 -4.645702 -1.272717 9.638447 6.499573 -16.930189 11.070248 2.966356 -26.193115 -0.005657 5.300978 -0.144588 1.488908 -9.218024 1.271034 
-1.077357 52.947609 -0.770094 0.869141 1.572266 -167.500000 20.585114 -13.436537 -2.485967 -10.468751 16.816408 9.521484 51.063168 8.107644 2.471410 -40.634766 20.986326 -45.996098 2.000000 -2.000000 0.000000 -87.919922 4.052734 12.167969 -46.892139 -2.083175 -1.889305 22.857937 59.898457 23.550575 -2.000000 2.000000 0.000000 81.259766 -11.181642 -11.152345 85.161469 0.312810 -2.902500 -52.565678 -37.622379 53.767433 -0.820597 21.592243 31.516754 12.790051 -4.713354 -1.260338 9.795861 6.484741 -17.108398 11.070248 2.966352 -26.193115 -0.005658 5.301155 -0.134834 1.480747 -9.076921 0.978481 
